<svg width="30" height="30" viewBox="0 0 30 30" fill="none" xmlns="http://www.w3.org/2000/svg">
<mask id="mask0_3665_145" style="mask-type:alpha" maskUnits="userSpaceOnUse" x="0" y="0" width="30" height="30">
<rect width="30" height="30" fill="#D9D9D9"/>
</mask>
<g mask="url(#mask0_3665_145)">
<path d="M11.5627 27.5L11.0627 23.5C10.7919 23.3958 10.5367 23.2708 10.2971 23.125C10.0575 22.9792 9.82316 22.8229 9.59399 22.6562L5.87524 24.2188L2.43774 18.2812L5.65649 15.8438C5.63566 15.6979 5.62524 15.5573 5.62524 15.4219V14.5781C5.62524 14.4427 5.63566 14.3021 5.65649 14.1562L2.43774 11.7188L5.87524 5.78125L9.59399 7.34375C9.82316 7.17708 10.0627 7.02083 10.3127 6.875C10.5627 6.72917 10.8127 6.60417 11.0627 6.5L11.5627 2.5H18.4377L18.9377 6.5C19.2086 6.60417 19.4638 6.72917 19.7034 6.875C19.943 7.02083 20.1773 7.17708 20.4065 7.34375L24.1252 5.78125L27.5627 11.7188L24.344 14.1562C24.3648 14.3021 24.3752 14.4427 24.3752 14.5781V15.4219C24.3752 15.5573 24.3544 15.6979 24.3127 15.8438L27.5315 18.2812L24.094 24.2188L20.4065 22.6562C20.1773 22.8229 19.9377 22.9792 19.6877 23.125C19.4377 23.2708 19.1877 23.3958 18.9377 23.5L18.4377 27.5H11.5627ZM13.7502 25H16.219L16.6565 21.6875C17.3023 21.5208 17.9013 21.276 18.4534 20.9531C19.0055 20.6302 19.5107 20.2396 19.969 19.7812L23.0627 21.0625L24.2815 18.9375L21.594 16.9063C21.6982 16.6146 21.7711 16.3073 21.8127 15.9844C21.8544 15.6615 21.8752 15.3333 21.8752 15C21.8752 14.6667 21.8544 14.3385 21.8127 14.0156C21.7711 13.6927 21.6982 13.3854 21.594 13.0938L24.2815 11.0625L23.0627 8.9375L19.969 10.25C19.5107 9.77083 19.0055 9.36979 18.4534 9.04688C17.9013 8.72396 17.3023 8.47917 16.6565 8.3125L16.2502 5H13.7815L13.344 8.3125C12.6982 8.47917 12.0992 8.72396 11.5471 9.04688C10.995 9.36979 10.4898 9.76042 10.0315 10.2188L6.93774 8.9375L5.71899 11.0625L8.40649 13.0625C8.30233 13.375 8.22941 13.6875 8.18774 14C8.14608 14.3125 8.12524 14.6458 8.12524 15C8.12524 15.3333 8.14608 15.6563 8.18774 15.9688C8.22941 16.2813 8.30233 16.5938 8.40649 16.9063L5.71899 18.9375L6.93774 21.0625L10.0315 19.75C10.4898 20.2292 10.995 20.6302 11.5471 20.9531C12.0992 21.276 12.6982 21.5208 13.344 21.6875L13.7502 25ZM15.0627 19.375C16.2711 19.375 17.3023 18.9479 18.1565 18.0938C19.0107 17.2396 19.4377 16.2083 19.4377 15C19.4377 13.7917 19.0107 12.7604 18.1565 11.9062C17.3023 11.0521 16.2711 10.625 15.0627 10.625C13.8336 10.625 12.7971 11.0521 11.9534 11.9062C11.1096 12.7604 10.6877 13.7917 10.6877 15C10.6877 16.2083 11.1096 17.2396 11.9534 18.0938C12.7971 18.9479 13.8336 19.375 15.0627 19.375Z" fill="#F27052"/>
</g>
</svg>
