<svg width="30" height="30" viewBox="0 0 30 30" fill="none" xmlns="http://www.w3.org/2000/svg">
<mask id="mask0_3665_121" style="mask-type:alpha" maskUnits="userSpaceOnUse" x="0" y="0" width="30" height="30">
<rect width="30" height="30" fill="#D9D9D9"/>
</mask>
<g mask="url(#mask0_3665_121)">
<path d="M4.99976 26.25V14.5312L2.74976 16.25L1.24976 14.25L4.99976 11.375V7.5H7.49976V9.46875L14.9998 3.75L28.7498 14.25L27.2498 16.2187L24.9998 14.5312V26.25H4.99976ZM7.49976 23.75H13.7498V18.75H16.2498V23.75H22.4998V12.625L14.9998 6.90625L7.49976 12.625V23.75ZM4.99976 6.25C4.99976 5.20833 5.36434 4.32292 6.09351 3.59375C6.82267 2.86458 7.70809 2.5 8.74976 2.5C9.10392 2.5 9.4008 2.38021 9.64038 2.14062C9.87996 1.90104 9.99976 1.60417 9.99976 1.25H12.4998C12.4998 2.29167 12.1352 3.17708 11.406 3.90625C10.6768 4.63542 9.79142 5 8.74976 5C8.39559 5 8.09871 5.11979 7.85913 5.35938C7.61955 5.59896 7.49976 5.89583 7.49976 6.25H4.99976Z" fill="#F27052"/>
</g>
</svg>
