<svg width="120" height="120" viewBox="0 0 39 39" fill="none" xmlns="http://www.w3.org/2000/svg">
<circle cx="19.5" cy="19.5" r="19.5" fill="#B7B7B7"/>
<mask id="mask0_4165_35" style="mask-type:alpha" maskUnits="userSpaceOnUse" x="8" y="6" width="24" height="24">
<rect x="8" y="6" width="24" height="24" fill="#D9D9D9"/>
</mask>
<g mask="url(#mask0_4165_35)">
<path d="M20 18C18.9 18 17.9583 17.6083 17.175 16.825C16.3917 16.0417 16 15.1 16 14C16 12.9 16.3917 11.9583 17.175 11.175C17.9583 10.3917 18.9 10 20 10C21.1 10 22.0417 10.3917 22.825 11.175C23.6083 11.9583 24 12.9 24 14C24 15.1 23.6083 16.0417 22.825 16.825C22.0417 17.6083 21.1 18 20 18ZM12 26V23.2C12 22.6333 12.1458 22.1125 12.4375 21.6375C12.7292 21.1625 13.1167 20.8 13.6 20.55C14.6333 20.0333 15.6833 19.6458 16.75 19.3875C17.8167 19.1292 18.9 19 20 19C21.1 19 22.1833 19.1292 23.25 19.3875C24.3167 19.6458 25.3667 20.0333 26.4 20.55C26.8833 20.8 27.2708 21.1625 27.5625 21.6375C27.8542 22.1125 28 22.6333 28 23.2V26H12ZM14 24H26V23.2C26 23.0167 25.9542 22.85 25.8625 22.7C25.7708 22.55 25.65 22.4333 25.5 22.35C24.6 21.9 23.6917 21.5625 22.775 21.3375C21.8583 21.1125 20.9333 21 20 21C19.0667 21 18.1417 21.1125 17.225 21.3375C16.3083 21.5625 15.4 21.9 14.5 22.35C14.35 22.4333 14.2292 22.55 14.1375 22.7C14.0458 22.85 14 23.0167 14 23.2V24ZM20 16C20.55 16 21.0208 15.8042 21.4125 15.4125C21.8042 15.0208 22 14.55 22 14C22 13.45 21.8042 12.9792 21.4125 12.5875C21.0208 12.1958 20.55 12 20 12C19.45 12 18.9792 12.1958 18.5875 12.5875C18.1958 12.9792 18 13.45 18 14C18 14.55 18.1958 15.0208 18.5875 15.4125C18.9792 15.8042 19.45 16 20 16Z" fill="#1C1B1F"/>
</g>
</svg>
