<svg width="28" height="30" viewBox="0 0 28 30" fill="none" xmlns="http://www.w3.org/2000/svg">
<mask id="mask0_3665_132" style="mask-type:alpha" maskUnits="userSpaceOnUse" x="0" y="0" width="28" height="30">
<rect width="27.1942" height="30" fill="#D9D9D9"/>
</mask>
<g mask="url(#mask0_3665_132)">
<path d="M20.3956 22.5C20.8677 22.5 21.269 22.3177 21.5995 21.9531C21.93 21.5885 22.0952 21.1458 22.0952 20.625C22.0952 20.1042 21.93 19.6615 21.5995 19.2969C21.269 18.9323 20.8677 18.75 20.3956 18.75C19.9235 18.75 19.5221 18.9323 19.1917 19.2969C18.8612 19.6615 18.6959 20.1042 18.6959 20.625C18.6959 21.1458 18.8612 21.5885 19.1917 21.9531C19.5221 22.3177 19.9235 22.5 20.3956 22.5ZM20.3956 26.25C20.9621 26.25 21.4909 26.1042 21.9819 25.8125C22.4729 25.5208 22.8789 25.1146 23.2 24.5938C22.7656 24.3021 22.3124 24.0885 21.8403 23.9531C21.3681 23.8177 20.8866 23.75 20.3956 23.75C19.9046 23.75 19.423 23.8177 18.9509 23.9531C18.4788 24.0885 18.0255 24.3021 17.5912 24.5938C17.9122 25.1146 18.3182 25.5208 18.8092 25.8125C19.3003 26.1042 19.829 26.25 20.3956 26.25ZM5.66536 26.25C5.04216 26.25 4.50866 26.0052 4.06486 25.5156C3.62107 25.026 3.39917 24.4375 3.39917 23.75V6.25C3.39917 5.5625 3.62107 4.97396 4.06486 4.48438C4.50866 3.99479 5.04216 3.75 5.66536 3.75H21.5287C22.1519 3.75 22.6854 3.99479 23.1292 4.48438C23.573 4.97396 23.7949 5.5625 23.7949 6.25V14.625C23.436 14.4375 23.0678 14.276 22.6901 14.1406C22.3124 14.0052 21.9253 13.9062 21.5287 13.8438V6.25H5.66536V23.75H12.5206C12.5772 24.2083 12.6669 24.6458 12.7897 25.0625C12.9124 25.4792 13.0588 25.875 13.2288 26.25H5.66536ZM5.66536 23.75V6.25V13.8438V13.75V23.75ZM7.93154 21.25H12.5489C12.6056 20.8125 12.6953 20.3854 12.818 19.9688C12.9408 19.5521 13.0777 19.1458 13.2288 18.75H7.93154V21.25ZM7.93154 16.25H14.8434C15.4477 15.625 16.1229 15.1042 16.8688 14.6875C17.6148 14.2708 18.4127 13.9896 19.2625 13.8438V13.75H7.93154V16.25ZM7.93154 11.25H19.2625V8.75H7.93154V11.25ZM20.3956 28.75C18.8281 28.75 17.492 28.1406 16.3873 26.9219C15.2825 25.7031 14.7301 24.2292 14.7301 22.5C14.7301 20.7708 15.2825 19.2969 16.3873 18.0781C17.492 16.8594 18.8281 16.25 20.3956 16.25C21.963 16.25 23.2991 16.8594 24.4039 18.0781C25.5087 19.2969 26.061 20.7708 26.061 22.5C26.061 24.2292 25.5087 25.7031 24.4039 26.9219C23.2991 28.1406 21.963 28.75 20.3956 28.75Z" fill="#F27052"/>
</g>
</svg>
