<svg width="30" height="30" viewBox="0 0 30 30" fill="none" xmlns="http://www.w3.org/2000/svg">
<mask id="mask0_3665_128" style="mask-type:alpha" maskUnits="userSpaceOnUse" x="0" y="0" width="30" height="30">
<rect width="30" height="30" fill="#D9D9D9"/>
</mask>
<g mask="url(#mask0_3665_128)">
<path d="M20.1565 3.75C22.2398 3.75 23.9846 4.52083 25.3909 6.0625C26.7971 7.60417 27.5002 9.4375 27.5002 11.5625C27.5002 11.9375 27.4794 12.3073 27.4377 12.6719C27.3961 13.0365 27.3232 13.3958 27.219 13.75H19.4065L17.2815 10.5625C17.1773 10.3958 17.0315 10.2604 16.844 10.1562C16.6565 10.0521 16.4586 10 16.2502 10C15.9794 10 15.7346 10.0833 15.5159 10.25C15.2971 10.4167 15.1461 10.625 15.0627 10.875L13.3752 15.9375L12.2815 14.3125C12.1773 14.1458 12.0315 14.0104 11.844 13.9062C11.6565 13.8021 11.4586 13.75 11.2502 13.75H2.78149C2.67733 13.3958 2.60441 13.0365 2.56274 12.6719C2.52108 12.3073 2.50024 11.9479 2.50024 11.5938C2.50024 9.44792 3.19816 7.60417 4.59399 6.0625C5.98983 4.52083 7.72941 3.75 9.81274 3.75C10.8127 3.75 11.7555 3.94792 12.6409 4.34375C13.5263 4.73958 14.3127 5.29167 15.0002 6C15.6669 5.29167 16.443 4.73958 17.3284 4.34375C18.2138 3.94792 19.1565 3.75 20.1565 3.75ZM15.0002 26.25C14.6252 26.25 14.2659 26.1823 13.9221 26.0469C13.5784 25.9115 13.2711 25.7083 13.0002 25.4375L4.62524 17.0312C4.50024 16.9062 4.38566 16.7812 4.28149 16.6562C4.17733 16.5312 4.07316 16.3958 3.96899 16.25H10.5627L12.6877 19.4375C12.7919 19.6042 12.9377 19.7396 13.1252 19.8438C13.3127 19.9479 13.5107 20 13.719 20C13.9898 20 14.2398 19.9167 14.469 19.75C14.6982 19.5833 14.8544 19.375 14.9377 19.125L16.6252 14.0625L17.6877 15.6875C17.8127 15.8542 17.969 15.9896 18.1565 16.0938C18.344 16.1979 18.5419 16.25 18.7502 16.25H26.0002L25.3752 17L16.969 25.4375C16.6982 25.7083 16.3961 25.9115 16.0627 26.0469C15.7294 26.1823 15.3752 26.25 15.0002 26.25Z" fill="#D82727"/>
</g>
</svg>
