<svg width="182" height="182" viewBox="0 0 182 182" fill="none" xmlns="http://www.w3.org/2000/svg">
<mask id="mask0_3624_71" style="mask-type:alpha" maskUnits="userSpaceOnUse" x="0" y="0" width="182" height="182">
<rect width="182" height="182" fill="#D9D9D9"/>
</mask>
<g mask="url(#mask0_3624_71)">
<path d="M122.282 22.75C134.92 22.75 145.506 27.4264 154.037 36.7792C162.568 46.1319 166.834 57.2542 166.834 70.1458C166.834 72.4208 166.707 74.6642 166.455 76.876C166.202 79.0879 165.759 81.2681 165.127 83.4167H117.732L104.84 64.0792C104.208 63.0681 103.323 62.2465 102.186 61.6146C101.048 60.9826 99.8476 60.6667 98.5837 60.6667C96.9406 60.6667 95.4555 61.1722 94.1285 62.1833C92.8014 63.1944 91.8851 64.4583 91.3795 65.975L81.142 96.6875L74.5066 86.8292C73.8746 85.8181 72.9899 84.9965 71.8524 84.3646C70.7149 83.7326 69.5142 83.4167 68.2503 83.4167H16.8732C16.2413 81.2681 15.7989 79.0879 15.5462 76.876C15.2934 74.6642 15.167 72.484 15.167 70.3354C15.167 57.3174 19.401 46.1319 27.8691 36.7792C36.3371 27.4264 46.8906 22.75 59.5295 22.75C65.5962 22.75 71.3153 23.9507 76.6868 26.3521C82.0583 28.7535 86.8295 32.1028 91.0003 36.4C95.0448 32.1028 99.7528 28.7535 105.124 26.3521C110.496 23.9507 116.215 22.75 122.282 22.75ZM91.0003 159.25C88.7253 159.25 86.5451 158.839 84.4597 158.018C82.3743 157.196 80.5101 155.964 78.867 154.321L28.0587 103.323C27.3003 102.565 26.6052 101.806 25.9732 101.048C25.3413 100.29 24.7094 99.4681 24.0774 98.5833H64.0795L76.9712 117.921C77.6031 118.932 78.4878 119.753 79.6253 120.385C80.7628 121.017 81.9635 121.333 83.2274 121.333C84.8705 121.333 86.3871 120.828 87.7774 119.817C89.1677 118.806 90.1156 117.542 90.6212 116.025L100.859 85.3125L107.305 95.1708C108.063 96.1819 109.011 97.0035 110.148 97.6354C111.286 98.2674 112.486 98.5833 113.75 98.5833H157.734L153.942 103.133L102.944 154.321C101.301 155.964 99.4684 157.196 97.4462 158.018C95.424 158.839 93.2753 159.25 91.0003 159.25Z" fill="#D82727"/>
</g>
</svg>
